<?xml version="1.0" standalone="no"?>
<!DOCTYPE svg PUBLIC "-//W3C//DTD SVG 20010904//EN"
 "http://www.w3.org/TR/2001/REC-SVG-20010904/DTD/svg10.dtd">
<svg version="1.0" xmlns="http://www.w3.org/2000/svg"
 width="1080.000000pt" height="1082.000000pt" viewBox="0 0 1080.000000 1082.000000"
 preserveAspectRatio="xMidYMid meet">

<g transform="translate(0.000000,1082.000000) scale(0.100000,-0.100000)"
fill="#000000" stroke="none">
<path d="M0 10810 c0 -7 1807 -10 5400 -10 3593 0 5400 3 5400 10 0 7 -1807
10 -5400 10 -3593 0 -5400 -3 -5400 -10z"/>
<path d="M6010 10739 c0 -12 69 -79 82 -79 4 0 8 -7 8 -15 0 -9 -8 -14 -21
-12 -16 1 -24 -6 -32 -28 -17 -52 -26 -58 -85 -51 -45 5 -104 29 -216 88 -37
20 -192 46 -276 46 -47 1 -159 7 -250 13 -91 6 -217 8 -280 5 -303 -17 -348
-21 -364 -35 -15 -13 -23 -25 -62 -98 -20 -38 -70 -58 -164 -68 -36 -4 -69
-11 -75 -15 -5 -4 -35 -13 -65 -20 -30 -7 -71 -21 -90 -31 -19 -10 -52 -25
-72 -33 -21 -8 -38 -19 -38 -24 0 -5 -13 -12 -29 -15 -22 -5 -32 -14 -41 -41
-8 -24 -22 -39 -47 -51 -20 -10 -58 -33 -85 -52 -26 -19 -72 -47 -100 -63
-188 -98 -196 -105 -239 -167 l-30 -42 21 -21 c11 -11 33 -20 50 -20 25 0 32
-6 45 -36 8 -20 15 -44 15 -53 0 -16 -110 -118 -207 -191 -42 -32 -53 -47 -58
-77 -21 -125 -29 -146 -80 -207 -28 -34 -61 -82 -73 -108 -13 -26 -33 -55 -45
-65 -55 -43 -68 -87 -45 -149 14 -38 -2 -107 -37 -159 -13 -18 -28 -57 -34
-86 -7 -30 -18 -63 -25 -74 -7 -11 -25 -60 -40 -110 -15 -49 -34 -108 -41
-130 -8 -22 -23 -75 -35 -119 -11 -43 -34 -107 -50 -141 -48 -103 -52 -128
-51 -390 0 -86 2 -91 28 -114 l27 -24 1 -246 c2 -225 4 -252 24 -321 13 -41
26 -110 30 -155 4 -44 13 -89 18 -100 6 -11 14 -42 18 -69 4 -27 18 -76 31
-107 32 -78 31 -87 -11 -95 -19 -3 -35 -12 -35 -19 0 -13 32 -45 45 -45 14 0
55 -51 55 -69 0 -10 12 -40 27 -67 14 -27 29 -69 32 -93 3 -25 11 -46 16 -48
15 -5 39 43 60 117 9 36 21 70 25 75 4 6 10 24 13 40 3 17 13 57 22 90 9 33
19 82 21 109 2 28 10 53 16 58 7 4 9 8 4 8 -5 0 -1 9 9 20 13 14 16 28 11 52
-18 95 -18 108 -6 123 7 9 17 36 22 61 4 24 12 64 16 90 6 28 17 51 31 60 17
12 19 19 11 29 -9 11 8 33 78 103 49 49 103 94 119 99 32 12 88 64 98 91 3 9
29 33 57 52 28 19 59 49 68 65 10 17 54 67 99 112 44 44 81 85 81 90 0 14 139
79 210 99 34 9 108 63 115 83 3 9 19 25 36 36 16 11 36 34 44 51 7 18 29 50
49 72 20 22 36 42 36 46 0 11 75 82 113 105 20 12 37 26 37 30 0 18 128 65
204 75 27 3 55 11 62 17 7 6 59 20 116 31 57 11 112 28 123 38 23 20 126 43
248 57 26 3 47 8 47 11 0 4 24 8 53 9 121 6 186 11 195 17 9 5 122 8 177 5 24
-2 151 17 162 24 5 3 28 1 53 -4 25 -4 88 -11 140 -14 152 -9 181 -13 194 -25
8 -5 20 -8 29 -5 15 6 124 -21 142 -35 6 -4 28 -13 50 -20 43 -13 74 -36 119
-90 16 -19 54 -46 87 -60 68 -31 97 -54 101 -84 2 -16 11 -22 36 -24 29 -3 37
-10 56 -51 12 -27 30 -57 40 -66 12 -13 16 -27 12 -46 -5 -27 13 -59 33 -59 4
0 7 -10 7 -22 -1 -18 4 -23 24 -23 14 0 36 -10 49 -22 17 -16 31 -20 50 -17
33 7 54 -15 54 -57 0 -18 3 -25 8 -17 4 7 12 9 16 4 8 -8 10 -21 16 -104 1
-24 9 -47 16 -52 8 -4 11 -15 8 -24 -4 -9 1 -50 9 -92 9 -42 13 -86 10 -99 -4
-15 -1 -25 9 -29 10 -4 15 -20 15 -53 0 -32 8 -64 25 -96 17 -30 23 -55 19
-71 -4 -16 -1 -25 10 -29 9 -4 16 -15 16 -26 0 -11 4 -22 9 -26 5 -3 12 -19
16 -35 4 -16 17 -38 30 -48 17 -13 24 -32 29 -73 10 -92 11 -152 5 -194 -4
-22 -3 -64 1 -95 5 -30 11 -93 14 -140 10 -135 39 -271 66 -303 4 -4 19 18 35
50 15 32 45 77 66 100 49 54 50 78 4 93 -37 12 -44 35 -26 82 11 29 39 125 45
158 3 14 18 39 34 55 40 42 52 68 52 109 0 20 9 50 20 68 11 18 20 47 20 63 0
17 12 55 27 85 15 30 28 75 30 100 2 25 5 74 7 110 2 36 13 98 25 137 29 101
29 236 0 301 -12 26 -26 76 -31 112 -5 36 -15 97 -23 135 -28 141 -39 232 -36
302 2 77 -11 120 -53 175 -20 27 -25 49 -31 128 l-7 95 78 68 c105 90 162 135
174 139 6 2 13 20 17 41 5 33 3 37 -16 37 -12 0 -38 -7 -58 -15 -54 -23 -138
-24 -159 -3 -18 18 -19 13 16 133 5 17 17 68 26 115 14 69 15 93 5 128 -6 23
-11 73 -11 110 0 85 -63 272 -92 272 -11 0 -20 10 -23 25 -3 14 -8 37 -11 53
-3 15 -12 37 -20 50 -16 24 -52 30 -58 10 -21 -77 -42 -138 -47 -138 -13 0
-49 81 -49 112 0 19 -4 38 -9 44 -6 5 -21 44 -35 86 -14 42 -34 94 -45 115
-11 21 -22 46 -25 56 -8 27 -26 10 -26 -24 0 -22 -5 -29 -19 -29 -54 0 -188
84 -252 158 -25 29 -44 41 -73 45 -25 4 -47 16 -60 32 -12 14 -50 45 -85 70
-55 38 -72 45 -113 45 -33 0 -64 8 -96 25 -26 14 -56 25 -68 25 -11 0 -24 3
-28 7 -15 15 -83 33 -106 28 -33 -7 -152 52 -182 90 -51 66 -258 149 -258 104z
m1678 -1255 c4 -73 2 -84 -17 -103 -11 -11 -25 -21 -30 -21 -12 0 -2 199 12
224 9 19 10 19 20 0 6 -10 13 -56 15 -100z"/>
<path d="M7250 10314 c0 -15 57 -74 72 -74 16 0 7 29 -18 59 -28 33 -54 41
-54 15z"/>
<path d="M4011 6985 c-18 -8 -46 -15 -61 -15 -15 0 -33 -6 -39 -14 -16 -20
-55 -25 -69 -9 -20 21 -63 27 -99 14 -19 -7 -56 -13 -81 -13 -39 -1 -51 -6
-71 -29 -13 -16 -29 -29 -35 -29 -14 -1 -66 -82 -66 -103 0 -9 -4 -19 -10 -22
-5 -3 -10 -16 -10 -28 0 -27 59 -70 84 -61 9 3 23 1 30 -5 16 -13 151 -19 162
-8 4 4 13 2 20 -4 32 -26 269 9 347 52 34 18 49 20 107 15 76 -8 169 -38 186
-61 6 -8 19 -15 29 -15 25 0 55 -29 48 -46 -6 -16 -39 -19 -48 -4 -3 5 -14 6
-28 1 -12 -5 -80 -14 -152 -21 -223 -20 -287 -30 -380 -61 -49 -17 -94 -35
-100 -40 -5 -5 -19 -9 -31 -9 -26 0 -84 -62 -84 -90 0 -21 -1 -20 120 -44 41
-9 87 -18 102 -22 23 -5 29 -2 37 18 12 31 98 90 125 86 14 -2 34 -29 62 -83
l42 -80 48 -3 c27 -2 53 -7 59 -12 5 -5 32 -3 60 3 66 16 116 69 140 150 9 32
24 61 32 64 17 7 115 -31 155 -60 15 -11 34 -17 43 -14 14 6 13 10 -6 36 -12
16 -18 34 -14 41 5 9 9 9 14 1 12 -19 103 -2 109 21 2 10 9 18 15 18 7 0 7 4
-1 12 -19 19 -14 32 19 52 24 14 28 20 18 32 -13 16 -3 27 61 65 21 12 43 37
54 61 l19 42 -33 28 c-19 15 -43 28 -55 28 -11 0 -85 23 -165 51 -80 28 -161
55 -180 60 -126 32 -226 50 -300 54 -47 2 -110 7 -140 9 -36 4 -66 0 -89 -9z"/>
<path d="M6287 6926 c-3 -8 -27 -15 -64 -18 -99 -7 -165 -50 -177 -115 -3 -11
-12 -35 -21 -53 -15 -30 -18 -31 -58 -25 -23 4 -51 16 -63 26 -16 15 -29 18
-65 13 -24 -3 -44 -7 -45 -8 -1 0 -4 -13 -8 -28 -5 -22 -2 -27 24 -37 17 -6
34 -21 40 -35 5 -15 17 -26 28 -26 10 0 23 -5 30 -12 9 -9 18 -9 37 0 20 9 30
9 46 -1 16 -10 21 -9 28 1 11 18 27 -4 33 -46 4 -28 1 -33 -19 -38 -31 -8 -30
-28 1 -22 44 9 47 -8 6 -30 -23 -12 -38 -17 -34 -11 3 6 -6 3 -20 -6 -15 -10
-23 -22 -18 -27 10 -10 76 -12 120 -3 27 6 32 5 32 -12 0 -19 -68 -83 -88 -83
-11 0 -47 -39 -41 -45 3 -2 29 7 58 20 29 14 60 25 69 25 8 0 23 6 31 14 9 7
31 18 48 24 29 9 34 8 43 -8 5 -10 10 -29 10 -42 0 -32 58 -118 99 -145 29
-19 47 -23 117 -23 58 0 84 4 84 12 0 6 10 22 21 35 12 12 30 46 40 75 23 70
45 73 109 19 28 -24 59 -41 73 -41 14 0 27 -6 30 -13 3 -7 24 -19 47 -26 34
-10 52 -10 93 0 62 15 82 28 67 43 -5 5 -10 17 -10 25 0 25 -50 80 -93 103
-97 52 -367 125 -491 133 -83 6 -166 34 -166 57 0 17 39 33 114 47 81 15 162
14 220 -4 56 -17 122 -20 131 -5 3 6 24 10 46 10 22 0 39 5 39 11 0 8 5 7 15
-1 9 -7 39 -14 68 -15 82 -4 161 -16 175 -28 10 -8 15 -8 20 0 5 8 19 7 47 -4
22 -9 60 -18 85 -20 25 -3 50 -9 57 -15 20 -16 29 29 10 48 -4 4 -7 18 -7 31
0 13 -8 35 -17 49 -9 14 -24 40 -33 57 -10 18 -26 34 -36 36 -10 2 -29 12 -42
22 -23 17 -104 46 -191 67 -31 7 -51 7 -68 -1 -18 -8 -29 -8 -43 1 -11 6 -32
9 -48 6 -20 -4 -44 3 -83 24 -48 26 -68 30 -174 36 -66 4 -152 9 -191 12 -55
3 -73 0 -77 -10z"/>
<path d="M2655 6528 c-2 -7 -12 -33 -21 -58 -9 -25 -17 -65 -18 -90 -1 -41 1
-45 24 -48 30 -3 80 44 100 95 11 28 10 37 -4 58 -21 33 -75 61 -81 43z"/>
<path d="M7840 6400 c-11 -11 -20 -26 -20 -34 0 -20 40 -67 51 -60 31 19 33
114 3 114 -8 0 -23 -9 -34 -20z"/>
<path d="M7830 6009 c0 -30 3 -40 10 -33 16 16 17 66 3 71 -9 3 -13 -8 -13
-38z"/>
<path d="M4842 5133 c-7 -3 -23 -21 -37 -41 l-24 -36 25 -25 c23 -23 28 -24
57 -12 67 27 77 26 173 -21 27 -13 64 5 64 30 -1 43 -51 73 -164 96 -43 9 -79
16 -80 15 0 0 -7 -3 -14 -6z"/>
<path d="M5640 5093 c-26 -9 -70 -56 -70 -74 0 -33 26 -41 99 -34 56 6 74 4
93 -9 28 -20 72 -21 88 -1 15 18 5 68 -18 88 -33 29 -146 47 -192 30z"/>
<path d="M4330 4430 c-30 -10 -65 -16 -77 -13 -21 5 -23 2 -23 -41 0 -39 4
-48 23 -55 156 -58 372 -85 413 -50 8 7 13 6 16 -3 8 -22 81 9 100 42 l16 28
-39 17 c-27 13 -49 16 -76 11 -53 -10 -145 -7 -160 6 -7 6 -22 8 -33 5 -22 -6
-70 36 -70 60 0 18 -25 16 -90 -7z"/>
<path d="M6174 4356 c-4 -10 -19 -13 -60 -9 -43 4 -54 2 -54 -10 0 -17 -21
-27 -57 -27 -14 0 -36 -9 -50 -20 -29 -23 -49 -25 -57 -7 -4 6 -4 2 -2 -11 4
-21 2 -22 -32 -17 l-37 6 35 -30 c22 -19 39 -26 46 -20 6 5 28 8 50 8 86 -1
217 11 230 22 11 9 21 9 40 0 22 -9 30 -8 56 10 23 16 27 24 16 30 -11 7 -11
12 0 30 9 14 10 25 4 31 -7 7 -14 2 -22 -13 l-13 -23 -14 28 c-9 17 -20 25
-28 22 -8 -3 -17 -1 -20 4 -9 14 -25 12 -31 -4z"/>
<path d="M4877 4333 c-82 -5 -87 -25 -9 -34 29 -4 63 -10 76 -13 14 -3 28 -2
31 4 9 15 -4 50 -18 48 -7 -1 -43 -3 -80 -5z"/>
<path d="M5671 4281 c-7 -5 -22 -6 -32 -4 -12 4 -19 0 -19 -9 0 -11 15 -17 49
-21 73 -9 119 9 74 28 -29 13 -57 15 -72 6z"/>
<path d="M10788 3945 c-5 -77 -12 -311 -18 -520 -5 -209 -14 -519 -19 -690 -6
-170 -13 -422 -16 -560 -10 -375 -22 -658 -30 -677 -4 -11 -18 -18 -34 -18
-29 0 -261 71 -391 120 -47 17 -123 44 -170 60 -47 15 -137 47 -200 70 -63 23
-167 59 -230 80 -63 21 -160 55 -215 75 -55 20 -138 50 -185 66 -47 16 -103
36 -125 44 -22 7 -105 36 -185 64 -80 29 -158 56 -175 61 -91 28 -300 101
-309 109 -6 4 -29 13 -51 19 -143 38 -616 215 -635 238 -7 7 -17 14 -22 14
-25 0 -154 104 -253 204 -60 61 -146 145 -190 187 -89 83 -119 117 -157 172
-13 20 -55 69 -93 109 -38 40 -77 88 -88 106 -23 38 -50 55 -76 47 -19 -6 -41
-64 -41 -109 0 -15 -6 -37 -14 -49 -8 -12 -18 -48 -21 -81 -7 -57 -7 -58 14
-47 19 10 22 9 31 -14 18 -48 6 -392 -24 -662 -8 -76 -20 -214 -26 -308 -6
-93 -19 -222 -30 -285 -18 -111 -37 -248 -65 -470 -8 -58 -21 -152 -30 -210
-9 -58 -20 -132 -25 -165 -10 -80 -37 -243 -56 -335 -8 -41 -21 -122 -29 -180
-8 -58 -19 -130 -24 -160 -5 -30 -17 -93 -25 -140 -9 -47 -16 -91 -16 -97 0
-10 431 -13 2125 -13 l2124 0 6 32 c3 18 4 937 3 2043 -2 1106 -6 1947 -10
1870z"/>
<path d="M3500 3444 c-9 -3 -40 -42 -70 -87 -106 -158 -188 -252 -471 -536
-142 -142 -161 -158 -215 -176 -32 -10 -66 -22 -74 -26 -26 -13 -223 -75 -410
-129 -41 -12 -88 -28 -105 -35 -39 -16 -101 -37 -195 -65 -41 -12 -84 -26 -95
-31 -31 -13 -256 -90 -290 -99 -16 -4 -75 -25 -130 -45 -55 -21 -120 -43 -145
-50 -118 -34 -457 -158 -670 -245 -96 -39 -213 -86 -260 -105 -47 -18 -141
-55 -210 -82 -69 -28 -133 -53 -142 -56 -17 -6 -18 -55 -18 -842 l0 -835 1925
0 1925 0 0 40 c0 22 -7 72 -14 112 -8 40 -22 138 -31 218 -8 80 -20 183 -25
230 -6 47 -12 110 -15 140 -4 54 -12 118 -36 290 -6 47 -15 132 -19 190 -9
121 -27 295 -41 392 -5 37 -9 97 -9 133 0 37 -7 106 -15 154 -8 47 -21 145
-30 216 -8 72 -22 168 -30 215 -28 171 -64 663 -51 713 3 15 15 35 26 45 11 9
20 24 20 34 0 10 6 18 14 18 7 0 16 8 18 18 7 30 -3 52 -23 52 -18 0 -20 6
-17 73 3 62 5 72 21 69 10 -2 17 3 17 13 0 10 -7 15 -17 13 -14 -2 -19 6 -23
32 -4 29 -9 35 -30 37 -14 0 -32 -1 -40 -3z"/>
<path d="M3590 3096 c0 -8 5 -18 10 -21 6 -3 10 3 10 14 0 12 -4 21 -10 21 -5
0 -10 -6 -10 -14z"/>
<path d="M4401 3047 c-8 -10 -3 -21 22 -46 52 -54 97 -61 97 -16 0 17 -13 29
-51 49 -60 31 -54 29 -68 13z"/>
<path d="M4607 2980 c-16 -5 -34 -7 -42 -4 -15 6 -27 -20 -19 -41 4 -8 14 -15
23 -16 9 0 11 -3 4 -5 -23 -10 -1 -34 30 -34 17 0 54 -13 84 -30 29 -16 67
-30 84 -30 36 0 112 -23 186 -57 28 -12 58 -23 65 -23 8 0 24 -7 37 -17 36
-25 282 -25 329 0 18 10 51 20 74 22 23 2 44 9 49 16 4 7 19 9 35 6 16 -3 43
1 59 8 17 7 54 15 84 18 34 3 57 10 62 20 5 8 20 17 33 21 31 8 39 31 19 52
-13 13 -28 15 -67 10 -28 -4 -55 -6 -61 -6 -236 1 -591 13 -611 20 -15 6 -42
8 -60 4 -19 -3 -42 -3 -51 1 -10 4 -43 8 -73 10 -30 2 -89 16 -130 30 -97 34
-109 36 -143 25z"/>
<path d="M5490 1557 c-30 -12 -76 -36 -101 -54 -25 -17 -61 -34 -80 -37 -30
-6 -39 -2 -78 33 -66 61 -131 65 -131 7 0 -27 9 -38 40 -54 36 -18 61 -34 98
-61 40 -28 68 -25 154 19 32 17 64 30 70 30 6 0 19 7 29 16 10 9 26 14 36 12
16 -3 16 -5 -6 -23 -13 -11 -29 -26 -36 -32 -8 -7 -17 -13 -20 -13 -4 0 -21
-11 -39 -25 -66 -54 -127 -95 -141 -95 -8 0 -18 7 -22 15 -13 23 -124 114
-163 135 -43 22 -75 12 -84 -25 -8 -30 15 -65 42 -65 8 0 28 -12 46 -26 57
-46 165 -114 182 -114 25 0 123 48 164 81 19 15 80 46 135 68 122 50 140 65
124 108 -13 38 -57 53 -95 32 -35 -18 -54 2 -25 27 27 24 27 50 -1 58 -32 8
-36 7 -98 -17z"/>
<path d="M5662 1299 c-29 -16 -79 -56 -110 -87 -31 -31 -63 -55 -69 -54 -9 2
-13 -10 -13 -38 0 -22 -4 -40 -9 -40 -18 0 -21 -33 -5 -51 9 -10 14 -22 11
-26 -3 -5 -2 -14 2 -21 5 -8 21 -9 61 -1 30 6 78 14 105 18 28 4 58 11 68 16
34 15 6 -25 -32 -44 -20 -11 -63 -38 -96 -60 -33 -23 -78 -54 -100 -68 -22
-14 -74 -59 -117 -100 -47 -45 -82 -71 -91 -67 -8 3 -45 39 -82 80 -38 42 -83
86 -101 97 -70 48 -182 138 -188 152 -3 9 -19 15 -38 15 -18 0 -42 7 -52 15
-27 20 -65 19 -102 -4 -25 -15 -34 -29 -39 -61 -4 -25 -14 -44 -23 -47 -10 -4
-29 -15 -44 -25 -25 -17 -28 -25 -28 -76 0 -60 6 -73 71 -153 20 -24 49 -66
65 -92 16 -26 43 -71 61 -100 17 -29 59 -108 93 -176 61 -123 62 -126 56 -186
-5 -48 -3 -65 8 -74 16 -13 17 -12 51 54 22 43 44 53 141 62 l52 5 -5 -44 c-4
-34 -1 -49 13 -62 26 -27 80 -15 123 28 31 31 33 38 24 59 -9 20 -21 25 -69
31 -54 6 -94 27 -94 48 0 10 -62 86 -127 157 -60 65 -55 79 14 42 31 -17 60
-31 65 -31 5 0 37 -18 72 -40 35 -22 67 -40 71 -40 12 0 87 34 157 70 31 17
64 30 73 30 8 0 27 7 40 16 15 10 25 12 25 5 0 -6 -6 -11 -14 -11 -7 0 -19
-12 -25 -28 -6 -15 -28 -38 -47 -52 -20 -13 -41 -34 -47 -47 -6 -13 -18 -23
-28 -23 -10 0 -25 -17 -38 -46 l-22 -46 20 -15 c35 -24 21 -88 -26 -118 -12
-9 -23 -22 -23 -30 0 -13 23 -15 140 -15 l140 0 0 44 c0 25 -4 48 -10 51 -17
11 -11 29 20 63 17 18 30 42 30 52 0 10 4 21 9 24 5 3 29 46 54 95 24 48 71
122 104 162 63 78 129 171 176 246 15 25 43 59 62 76 47 41 49 90 5 115 -26
15 -30 23 -30 59 0 33 -5 46 -22 57 -36 22 -90 27 -112 11 -11 -8 -23 -15 -28
-15 -17 0 -7 35 19 62 23 24 25 32 15 46 -6 9 -21 34 -32 54 -11 20 -24 40
-30 43 -6 4 -22 24 -36 46 -13 21 -32 39 -42 39 -9 0 -41 -14 -70 -31z m-161
-182 c-13 -13 -26 -3 -16 12 3 6 11 8 17 5 6 -4 6 -10 -1 -17z m309 -67 c0
-11 -33 -30 -51 -30 -8 0 -5 8 7 19 20 21 44 27 44 11z m-668 -421 c21 -11 43
-19 50 -19 8 0 21 -9 31 -20 9 -11 25 -20 34 -20 19 0 111 34 156 57 39 21 87
33 87 23 0 -5 -4 -10 -10 -12 -5 -1 -57 -50 -115 -107 -99 -98 -107 -103 -130
-93 -14 6 -25 18 -25 25 0 7 -10 22 -22 34 -46 40 -124 129 -131 146 -6 15 -3
17 16 11 12 -3 39 -15 59 -25z"/>
<path d="M4872 1204 c-88 -90 -92 -114 -27 -151 22 -13 45 -21 52 -18 6 2 23
-5 36 -16 14 -10 32 -16 41 -13 8 3 25 -1 38 -10 29 -20 58 -21 58 -1 0 9 7
18 15 21 17 7 21 44 5 44 -6 0 -9 22 -7 52 3 51 2 53 -54 110 -32 32 -63 58
-71 57 -7 0 -46 -34 -86 -75z"/>
<path d="M4963 23 c-28 -11 -11 -23 32 -23 35 0 43 3 39 15 -6 14 -45 19 -71
8z"/>
</g>
</svg>
